<svg width="22" height="22" viewBox="0 0 22 22" fill="none" xmlns="http://www.w3.org/2000/svg">
    <path d="M7.56201 7.56238C7.74435 7.56238 7.91922 7.63481 8.04815 7.76374C8.17708 7.89267 8.24951 8.06754 8.24951 8.24988V16.4999C8.24951 16.6822 8.17708 16.8571 8.04815 16.986C7.91922 17.1149 7.74435 17.1874 7.56201 17.1874C7.37968 17.1874 7.20481 17.1149 7.07588 16.986C6.94694 16.8571 6.87451 16.6822 6.87451 16.4999V8.24988C6.87451 8.06754 6.94694 7.89267 7.07588 7.76374C7.20481 7.63481 7.37968 7.56238 7.56201 7.56238ZM10.9995 7.56238C11.1818 7.56238 11.3567 7.63481 11.4856 7.76374C11.6146 7.89267 11.687 8.06754 11.687 8.24988V16.4999C11.687 16.6822 11.6146 16.8571 11.4856 16.986C11.3567 17.1149 11.1818 17.1874 10.9995 17.1874C10.8172 17.1874 10.6423 17.1149 10.5134 16.986C10.3844 16.8571 10.312 16.6822 10.312 16.4999V8.24988C10.312 8.06754 10.3844 7.89267 10.5134 7.76374C10.6423 7.63481 10.8172 7.56238 10.9995 7.56238ZM15.1245 8.24988C15.1245 8.06754 15.0521 7.89267 14.9231 7.76374C14.7942 7.63481 14.6193 7.56238 14.437 7.56238C14.2547 7.56238 14.0798 7.63481 13.9509 7.76374C13.8219 7.89267 13.7495 8.06754 13.7495 8.24988V16.4999C13.7495 16.6822 13.8219 16.8571 13.9509 16.986C14.0798 17.1149 14.2547 17.1874 14.437 17.1874C14.6193 17.1874 14.7942 17.1149 14.9231 16.986C15.0521 16.8571 15.1245 16.6822 15.1245 16.4999V8.24988Z" fill="#4B5563"/>
    <path d="M19.937 4.12488C19.937 4.48955 19.7921 4.83929 19.5343 5.09715C19.2764 5.35501 18.9267 5.49988 18.562 5.49988H17.8745V17.8749C17.8745 18.6042 17.5848 19.3037 17.0691 19.8194C16.5533 20.3351 15.8539 20.6249 15.1245 20.6249H6.87451C6.14517 20.6249 5.44569 20.3351 4.92997 19.8194C4.41424 19.3037 4.12451 18.6042 4.12451 17.8749V5.49988H3.43701C3.07234 5.49988 2.7226 5.35501 2.46474 5.09715C2.20688 4.83929 2.06201 4.48955 2.06201 4.12488V2.74988C2.06201 2.38521 2.20688 2.03547 2.46474 1.77761C2.7226 1.51974 3.07234 1.37488 3.43701 1.37488H8.24951C8.24951 1.01021 8.39438 0.660469 8.65224 0.402606C8.9101 0.144744 9.25984 -0.00012207 9.62451 -0.00012207L12.3745 -0.00012207C12.7392 -0.00012207 13.0889 0.144744 13.3468 0.402606C13.6046 0.660469 13.7495 1.01021 13.7495 1.37488H18.562C18.9267 1.37488 19.2764 1.51974 19.5343 1.77761C19.7921 2.03547 19.937 2.38521 19.937 2.74988V4.12488ZM5.66176 5.49988L5.49951 5.581V17.8749C5.49951 18.2396 5.64438 18.5893 5.90224 18.8471C6.1601 19.105 6.50984 19.2499 6.87451 19.2499H15.1245C15.4892 19.2499 15.8389 19.105 16.0968 18.8471C16.3546 18.5893 16.4995 18.2396 16.4995 17.8749V5.581L16.3373 5.49988H5.66176ZM3.43701 4.12488H18.562V2.74988H3.43701V4.12488Z" fill="#4B5563"/>
</svg>
